<svg width="69" height="64" viewBox="0 0 69 64" fill="none" xmlns="http://www.w3.org/2000/svg">
<g id="Frame" clip-path="url(#clip0_2_4233)">
<path id="Vector" d="M64.5004 19.9998H53.7004V5.5998C53.7004 2.94885 51.5513 0.799805 48.9004 0.799805H20.1004C17.4494 0.799805 15.3004 2.94885 15.3004 5.5998V16.3998H4.50039C2.51214 16.3998 0.900391 18.0116 0.900391 19.9998V34.3998C0.900391 36.3881 2.51214 37.9998 4.50039 37.9998H15.3004V58.3998C15.3004 61.0508 17.4494 63.1998 20.1004 63.1998H48.9004C51.5513 63.1998 53.7004 61.0508 53.7004 58.3998V43.9998H64.5004C66.4886 43.9998 68.1004 42.3881 68.1004 40.3998V23.5998C68.1004 21.6116 66.4886 19.9998 64.5004 19.9998ZM17.7004 5.5998C17.7004 4.27425 18.7748 3.1998 20.1004 3.1998H48.9004C50.2259 3.1998 51.3004 4.27425 51.3004 5.5998V10.3998H17.7004V5.5998ZM4.50039 35.5998C3.83769 35.5998 3.30039 35.0625 3.30039 34.3998V19.9998C3.30039 19.3371 3.83769 18.7998 4.50039 18.7998H28.5004C29.1631 18.7998 29.7004 19.3371 29.7004 19.9998V34.3998C29.7004 35.0625 29.1631 35.5998 28.5004 35.5998H24.9004C24.2377 35.5998 23.7004 36.1371 23.7004 36.7998V39.357L18.3664 35.8014C18.169 35.6703 17.9374 35.6003 17.7004 35.5998H4.50039ZM51.3004 58.3998C51.3004 59.7254 50.2259 60.7998 48.9004 60.7998H20.1004C18.7748 60.7998 17.7004 59.7254 17.7004 58.3998V53.5998H51.3004V58.3998ZM51.3004 51.1998H17.7004V38.2398L24.2344 42.5958C24.7856 42.9636 25.5308 42.8149 25.8986 42.2635C26.0297 42.0671 26.0999 41.8361 26.1004 41.5998V37.9998H28.5004C30.4886 37.9998 32.1004 36.3881 32.1004 34.3998V19.9998C32.1004 18.0116 30.4886 16.3998 28.5004 16.3998H17.7004V12.7998H51.3004V19.9998H40.5004C38.5121 19.9998 36.9004 21.6116 36.9004 23.5998V40.3998C36.9004 42.3881 38.5121 43.9998 40.5004 43.9998H42.9004V47.5998C42.9002 48.2625 43.4375 48.8 44.1002 48.8C44.3374 48.8 44.5691 48.7298 44.7664 48.5982L51.3004 44.2398V51.1998ZM65.7004 40.3998C65.7004 41.0625 65.1631 41.5998 64.5004 41.5998H51.3004C51.0634 41.6003 50.8318 41.6703 50.6344 41.8014L45.3004 45.357V42.7998C45.3004 42.1371 44.7631 41.5998 44.1004 41.5998H40.5004C39.8377 41.5998 39.3004 41.0625 39.3004 40.3998V23.5998C39.3004 22.9371 39.8377 22.3998 40.5004 22.3998H64.5004C65.1631 22.3998 65.7004 22.9371 65.7004 23.5998V40.3998Z" fill="#FC724D"/>
</g>
<defs>
<clipPath id="clip0_2_4233">
<rect width="67.2" height="62.4" fill="white" transform="translate(0.900391 0.799805)"/>
</clipPath>
</defs>
</svg>
